<svg width="48" height="48" viewBox="0 0 48 48" fill="none" xmlns="http://www.w3.org/2000/svg">
<path d="M24 16C19.5817 16 16 19.5817 16 24C16 28.4183 19.5817 32 24 32C28.4183 32 32 28.4183 32 24C32 19.5817 28.4183 16 24 16ZM24 16H42.34M7.9 12.12L17.08 28M21.76 43.88L30.92 28M44 24C44 35.0457 35.0457 44 24 44C12.9543 44 4 35.0457 4 24C4 12.9543 12.9543 4 24 4C35.0457 4 44 12.9543 44 24Z" stroke="white" stroke-width="4" stroke-linecap="round" stroke-linejoin="round"/>
<path d="M41.25 31.6667V16.3333C41.2493 15.6611 41.0719 15.0009 40.7354 14.4189C40.399 13.8369 39.9155 13.3536 39.3333 13.0175L25.9167 5.35083C25.3339 5.01439 24.6729 4.83727 24 4.83727C23.3271 4.83727 22.6661 5.01439 22.0833 5.35083L8.66667 13.0175C8.0845 13.3536 7.60096 13.8369 7.26455 14.4189C6.92814 15.0009 6.75069 15.6611 6.75 16.3333V31.6667C6.75069 32.3389 6.92814 32.9991 7.26455 33.5811C7.60096 34.1631 8.0845 34.6464 8.66667 34.9825L22.0833 42.6492C22.6661 42.9856 23.3271 43.1627 24 43.1627C24.6729 43.1627 25.3339 42.9856 25.9167 42.6492L39.3333 34.9825C39.9155 34.6464 40.399 34.1631 40.7354 33.5811C41.0719 32.9991 41.2493 32.3389 41.25 31.6667Z" stroke="white" stroke-width="4" stroke-linecap="round" stroke-linejoin="round"/>
</svg>
